<svg xmlns="http://www.w3.org/2000/svg" viewBox="0 0 400 200" fill="none">
  <rect width="400" height="200" rx="20" fill="#f0f4f8"/>
  <g transform="translate(30,20)">
    <path d="M45 132 Q45 108 62 98 L90 88 Q100 50 145 38 L260 34 Q320 32 345 48 L358 65 Q365 80 365 100 L365 132" fill="#59b7b7" opacity=".9"/>
    <path d="M105 85 Q112 40 160 30 L255 28 Q310 28 328 45 L340 68" fill="#fff" opacity=".3"/>
    <path d="M112 80 Q118 45 158 36 L248 34 Q300 34 315 48 L325 64" fill="#fff" opacity=".5" stroke="#4a9e9e" stroke-width="1"/>
    <line x1="210" y1="34" x2="210" y2="80" stroke="#4a9e9e" stroke-width="1" opacity=".4"/>
    <rect x="40" y="132" width="330" height="13" rx="6" fill="#3a8a8a"/>
    <circle cx="105" cy="145" r="21" fill="#2d3748"/><circle cx="105" cy="145" r="12" fill="#718096"/><circle cx="105" cy="145" r="5" fill="#a0aec0"/>
    <circle cx="305" cy="145" r="21" fill="#2d3748"/><circle cx="305" cy="145" r="12" fill="#718096"/><circle cx="305" cy="145" r="5" fill="#a0aec0"/>
    <rect x="345" y="90" width="22" height="11" rx="4" fill="#e53e3e" opacity=".7"/>
    <rect x="48" y="94" width="18" height="9" rx="3" fill="#ecc94b" opacity=".7"/>
  </g>
  <text x="200" y="190" text-anchor="middle" font-family="Outfit,sans-serif" font-size="13" font-weight="600" fill="#59b7b7" letter-spacing="2">MONOSPACE</text>
</svg>
