<svg xmlns="http://www.w3.org/2000/svg" viewBox="0 0 400 200" fill="none">
  <rect width="400" height="200" rx="20" fill="#f0f4f8"/>
  <g transform="translate(30,18)">
    <path d="M45 130 Q45 105 65 95 L95 85 Q110 55 160 42 L250 38 Q310 36 335 50 L355 68 Q365 82 365 100 L365 130" fill="#59b7b7" opacity=".9"/>
    <path d="M108 82 Q120 42 180 32 L245 30 Q295 30 315 48 L330 70" fill="#fff" opacity=".3"/>
    <path d="M118 78 Q128 46 178 38 L240 36 Q285 36 300 52 L312 68" fill="#fff" opacity=".5" stroke="#4a9e9e" stroke-width="1"/>
    <rect x="40" y="130" width="330" height="14" rx="7" fill="#3a8a8a"/>
    <circle cx="105" cy="144" r="22" fill="#2d3748"/><circle cx="105" cy="144" r="13" fill="#718096"/><circle cx="105" cy="144" r="6" fill="#a0aec0"/>
    <circle cx="305" cy="144" r="22" fill="#2d3748"/><circle cx="305" cy="144" r="13" fill="#718096"/><circle cx="305" cy="144" r="6" fill="#a0aec0"/>
    <rect x="342" y="88" width="24" height="12" rx="4" fill="#e53e3e" opacity=".7"/>
    <rect x="50" y="92" width="20" height="10" rx="3" fill="#ecc94b" opacity=".7"/>
  </g>
  <text x="200" y="190" text-anchor="middle" font-family="Outfit,sans-serif" font-size="13" font-weight="600" fill="#59b7b7" letter-spacing="2">SUV / CROSSOVER</text>
</svg>
