<svg xmlns="http://www.w3.org/2000/svg" viewBox="0 0 400 200" fill="none">
  <rect width="400" height="200" rx="20" fill="#f0f4f8"/>
  <g transform="translate(35,30)">
    <path d="M45 120 Q45 102 62 95 L92 87 Q115 70 160 65 L245 60 Q295 58 318 68 L335 80 Q345 90 345 100 L345 120" fill="#59b7b7" opacity=".9"/>
    <path d="M155 65 Q168 50 200 48 L235 46 Q255 46 262 52" fill="none" stroke="#4a9e9e" stroke-width="2" opacity=".6"/>
    <rect x="40" y="120" width="310" height="12" rx="6" fill="#3a8a8a"/>
    <circle cx="100" cy="132" r="19" fill="#2d3748"/><circle cx="100" cy="132" r="11" fill="#718096"/><circle cx="100" cy="132" r="5" fill="#a0aec0"/>
    <circle cx="290" cy="132" r="19" fill="#2d3748"/><circle cx="290" cy="132" r="11" fill="#718096"/><circle cx="290" cy="132" r="5" fill="#a0aec0"/>
    <rect x="322" y="88" width="24" height="10" rx="3" fill="#e53e3e" opacity=".7"/>
    <rect x="48" y="92" width="18" height="8" rx="3" fill="#ecc94b" opacity=".7"/>
    <circle cx="175" cy="72" r="3" fill="#4a9e9e" opacity=".5"/>
    <circle cx="220" cy="68" r="3" fill="#4a9e9e" opacity=".5"/>
  </g>
  <text x="200" y="185" text-anchor="middle" font-family="Outfit,sans-serif" font-size="13" font-weight="600" fill="#59b7b7" letter-spacing="2">CABRIOLET</text>
</svg>
