<svg xmlns="http://www.w3.org/2000/svg" viewBox="0 0 400 200" fill="none">
  <rect width="400" height="200" rx="20" fill="#f0f4f8"/>
  <g transform="translate(35,25)">
    <path d="M45 128 Q45 108 65 100 L95 90 Q120 65 170 55 L250 50 Q300 48 320 60 L338 75 Q350 90 350 102 L350 128" fill="#59b7b7" opacity=".9"/>
    <path d="M110 90 Q128 48 185 40 L242 38 Q280 38 295 55 L308 78" fill="#fff" opacity=".3"/>
    <path d="M120 86 Q135 52 182 46 L235 44 Q268 44 278 58 L288 74" fill="#fff" opacity=".5" stroke="#4a9e9e" stroke-width="1"/>
    <rect x="40" y="128" width="315" height="12" rx="6" fill="#3a8a8a"/>
    <circle cx="100" cy="140" r="20" fill="#2d3748"/><circle cx="100" cy="140" r="12" fill="#718096"/><circle cx="100" cy="140" r="5" fill="#a0aec0"/>
    <circle cx="295" cy="140" r="20" fill="#2d3748"/><circle cx="295" cy="140" r="12" fill="#718096"/><circle cx="295" cy="140" r="5" fill="#a0aec0"/>
    <rect x="330" y="94" width="22" height="10" rx="3" fill="#e53e3e" opacity=".7"/>
    <rect x="50" y="98" width="18" height="8" rx="3" fill="#ecc94b" opacity=".7"/>
  </g>
  <text x="200" y="185" text-anchor="middle" font-family="Outfit,sans-serif" font-size="13" font-weight="600" fill="#59b7b7" letter-spacing="2">COMPACTE</text>
</svg>
