<svg xmlns="http://www.w3.org/2000/svg" viewBox="0 0 400 200" fill="none">
  <rect width="400" height="200" rx="20" fill="#f0f4f8"/>
  <g transform="translate(40,28)">
    <path d="M50 125 Q50 105 70 98 L100 88 Q125 68 165 60 L240 55 Q285 53 305 62 L320 75 Q335 88 335 100 L335 125" fill="#59b7b7" opacity=".9"/>
    <path d="M115 88 Q130 50 180 44 L230 42 Q265 42 278 58 L290 78" fill="#fff" opacity=".3"/>
    <path d="M125 84 Q138 55 178 50 L222 48 Q250 48 260 62 L268 74" fill="#fff" opacity=".5" stroke="#4a9e9e" stroke-width="1"/>
    <rect x="45" y="125" width="295" height="12" rx="6" fill="#3a8a8a"/>
    <circle cx="105" cy="137" r="19" fill="#2d3748"/><circle cx="105" cy="137" r="11" fill="#718096"/><circle cx="105" cy="137" r="5" fill="#a0aec0"/>
    <circle cx="280" cy="137" r="19" fill="#2d3748"/><circle cx="280" cy="137" r="11" fill="#718096"/><circle cx="280" cy="137" r="5" fill="#a0aec0"/>
    <rect x="315" y="92" width="22" height="9" rx="3" fill="#e53e3e" opacity=".7"/>
    <rect x="55" y="96" width="18" height="8" rx="3" fill="#ecc94b" opacity=".7"/>
  </g>
  <text x="200" y="185" text-anchor="middle" font-family="Outfit,sans-serif" font-size="13" font-weight="600" fill="#59b7b7" letter-spacing="2">ÉCONOMIQUE</text>
</svg>
